HIERARCHY
ROOT Hips
{
	OFFSET 0.00000 0.00000 0.00000
	CHANNELS 6 Xposition Yposition Zposition Zrotation Yrotation Xrotation 
	JOINT LHipJoint
	{
		OFFSET 0 0 0
		CHANNELS 3 Zrotation Yrotation Xrotation
		JOINT LeftUpLeg
		{
			OFFSET 1.42489 -1.84941 0.69647
			CHANNELS 3 Zrotation Yrotation Xrotation
			JOINT LeftLeg
			{
				OFFSET 2.44443 -6.71602 0.00000
				CHANNELS 3 Zrotation Yrotation Xrotation
				JOINT LeftFoot
				{
					OFFSET 2.62838 -7.22137 0.00000
					CHANNELS 3 Zrotation Yrotation Xrotation
					JOINT LeftToeBase
					{
						OFFSET 0.24036 -0.66037 2.29953
						CHANNELS 3 Zrotation Yrotation Xrotation
						End Site
						{
							OFFSET 0.00000 -0.00000 1.19837
						}
					}
				}
			}
		}
	}
	JOINT RHipJoint
	{
		OFFSET 0 0 0
		CHANNELS 3 Zrotation Yrotation Xrotation
		JOINT RightUpLeg
		{
			OFFSET -1.37055 -1.84941 0.69647
			CHANNELS 3 Zrotation Yrotation Xrotation
			JOINT RightLeg
			{
				OFFSET -2.54834 -7.00152 0.00000
				CHANNELS 3 Zrotation Yrotation Xrotation
				JOINT RightFoot
				{
					OFFSET -2.65692 -7.29983 0.00000
					CHANNELS 3 Zrotation Yrotation Xrotation
					JOINT RightToeBase
					{
						OFFSET -0.18839 -0.51760 2.29390
						CHANNELS 3 Zrotation Yrotation Xrotation
						End Site
						{
							OFFSET -0.00000 -0.00000 1.18261
						}
					}
				}
			}
		}
	}
	JOINT LowerBack
	{
		OFFSET 0 0 0
		CHANNELS 3 Zrotation Yrotation Xrotation
		JOINT Spine
		{
			OFFSET 0.05220 2.15489 0.05011
			CHANNELS 3 Zrotation Yrotation Xrotation
			JOINT Spine1
			{
				OFFSET -0.07653 2.14219 -0.05668
				CHANNELS 3 Zrotation Yrotation Xrotation
				JOINT Neck
				{
					OFFSET 0 0 0
					CHANNELS 3 Zrotation Yrotation Xrotation
					JOINT Neck1
					{
						OFFSET 0.01370 1.58638 0.01447
						CHANNELS 3 Zrotation Yrotation Xrotation
						JOINT Head
						{
							OFFSET 0.23548 1.54190 -0.21747
							CHANNELS 3 Zrotation Yrotation Xrotation
							End Site
							{
								OFFSET 0.07132 1.59823 -0.08163
							}
						}
					}
				}
				JOINT LeftShoulder
				{
					OFFSET 0 0 0
					CHANNELS 3 Zrotation Yrotation Xrotation
					JOINT LeftArm
					{
						OFFSET 3.47056 1.45357 -0.58896
						CHANNELS 3 Zrotation Yrotation Xrotation
						JOINT LeftForeArm
						{
							OFFSET 5.19069 -0.00000 0.00000
							CHANNELS 3 Zrotation Yrotation Xrotation
							JOINT LeftHand
							{
								OFFSET 3.30016 -0.00000 0.00000
								CHANNELS 3 Zrotation Yrotation Xrotation
								JOINT LeftFingerBase
								{
									OFFSET 0 0 0
									CHANNELS 3 Zrotation Yrotation Xrotation
									JOINT LeftHandIndex1
									{
										OFFSET 0.70770 -0.00000 0.00000
										CHANNELS 3 Zrotation Yrotation Xrotation
										End Site
										{
											OFFSET 0.57056 -0.00000 0.00000
										}
									}
								}
								JOINT LThumb
								{
									OFFSET 0 0 0
									CHANNELS 3 Zrotation Yrotation Xrotation
									End Site
									{
										OFFSET 0.57928 -0.00000 0.57928
									}
								}
							}
						}
					}
				}
				JOINT RightShoulder
				{
					OFFSET 0 0 0
					CHANNELS 3 Zrotation Yrotation Xrotation
					JOINT RightArm
					{
						OFFSET -2.89018 2.03305 -0.26731
						CHANNELS 3 Zrotation Yrotation Xrotation
						JOINT RightForeArm
						{
							OFFSET -5.23924 -0.00000 0.00000
							CHANNELS 3 Zrotation Yrotation Xrotation
							JOINT RightHand
							{
								OFFSET -3.32953 -0.00000 0.00000
								CHANNELS 3 Zrotation Yrotation Xrotation
								JOINT RightFingerBase
								{
									OFFSET 0 0 0
									CHANNELS 3 Zrotation Yrotation Xrotation
									JOINT RightHandIndex1
									{
										OFFSET -0.60741 -0.00000 0.00000
										CHANNELS 3 Zrotation Yrotation Xrotation
										End Site
										{
											OFFSET -0.48971 -0.00000 0.00000
										}
									}
								}
								JOINT RThumb
								{
									OFFSET 0 0 0
									CHANNELS 3 Zrotation Yrotation Xrotation
									End Site
									{
										OFFSET -0.49719 -0.00000 0.49719
									}
								}
							}
						}
					}
				}
			}
		}
	}
}
MOTION
Frames: 7
Frame Time: .0083333
10.3336 17.1825 4.2649 0 0 0 0 0 0 -21 0 0 0 0 0 0 0 0 0 0 0 0 0 0 21 0 0 0 0 0 0 0 0 0 0 0 0 0 0 0 0 0 0 0 0 0 0 -16 0 0 21 0 0 11 0 0 0 -8 0 0 0 0 0 0 0 0 0 0 0 0 0 0 0 0 0 0 0 0 8 0 0 0 0 0 0 0 0 0 0 0 0 0 0 0 0 0
10.3336 17.1825 4.2649 -14.3180 -61.6029 15.0015 0.0000 0.0000 0.0000 -13.6216 -0.1925 -15.3754 3.7185 11.7761 34.9445 1.8055 -4.1968 -24.4178 0.0579 -1.5530 -4.2718 0.0000 0.0000 0.0000 29.8292 -2.3997 -15.8665 -3.6811 -11.7235 34.7608 -1.9724 -2.8518 -27.6814 -0.0006 -0.1547 0.4249 7.5133 -0.4878 -6.4757 0.3663 -1.4006 3.1793 -4.0061 -0.3631 6.8367 -5.4173 -3.7897 -9.7968 11.1814 -5.6795 9.0974 3.9495 -2.3574 4.8181 -0.0000 -0.0000 0.0000 -60.5095 4.1440 60.0385 14.1793 -22.9904 -2.8978 -0.0000 0.0000 -8.7298 5.6803 -3.1706 -0.3152 -7.1250 0.0000 -0.0000 -15.8207 26.6985 7.2885 -0.0000 -0.0000 0.0000 68.3943 -11.1288 50.2791 -9.3849 15.7718 -1.3028 0.0000 0.0000 20.8573 -4.1888 -3.8929 0.2849 7.1250 -0.0000 -0.0000 18.1616 -33.4416 5.3794
10.3348 17.1822 4.2571 -14.3104 -61.5468 15.0592 0.0000 0.0000 0.0000 -13.5572 -0.0832 -15.5452 3.7241 11.7839 34.9718 1.7942 -4.3600 -24.3130 0.0598 -1.5776 -4.3397 0.0000 0.0000 0.0000 29.8838 -2.3642 -15.9385 -3.6793 -11.7210 34.7520 -1.9695 -2.9230 -27.6929 -0.0005 -0.1501 0.4124 7.5159 -0.4543 -6.5088 0.3709 -1.3579 3.1543 -3.9981 -0.3427 6.8344 -5.5276 -3.8368 -9.7166 11.2944 -5.7372 9.0215 3.9996 -2.3875 4.7929 0.0000 0.0000 0.0000 -60.4335 4.0945 60.3081 14.2125 -23.0377 -2.9107 -0.0000 0.0000 -8.8429 5.7012 -3.1424 -0.3136 -7.1250 0.0000 -0.0000 -15.8089 26.7259 7.2721 0.0000 0.0000 0.0000 68.3692 -11.2415 50.3381 -9.4310 15.8446 -1.3153 0.0000 0.0000 20.6782 -4.1908 -3.8967 0.2853 7.1250 -0.0000 -0.0000 18.1608 -33.4453 5.3774
10.3351 17.1824 4.2544 -14.3353 -61.5351 15.0807 0.0000 0.0000 0.0000 -13.5291 -0.1092 -15.5449 3.7259 11.7864 34.9805 1.7951 -4.3831 -24.3152 0.0563 -1.5305 -4.2097 0.0000 0.0000 0.0000 29.9104 -2.3693 -15.9456 -3.6785 -11.7199 34.7481 -1.9683 -2.9451 -27.6946 -0.0004 -0.1305 0.3586 7.4955 -0.4929 -6.4746 0.3845 -1.4045 3.1368 -3.9767 -0.3691 6.7906 -5.4748 -3.8016 -9.6862 11.2656 -5.6940 9.0145 3.9856 -2.3674 4.7795 0.0000 -0.0000 0.0000 -60.6941 4.1878 59.7908 14.0925 -22.8668 -2.8639 -0.0000 0.0000 -8.3437 5.6973 -3.2115 -0.3202 -7.1250 0.0000 -0.0000 -15.8026 26.6591 7.2948 0.0000 -0.0000 0.0000 68.3610 -11.2321 50.4006 -9.4247 15.8348 -1.3136 0.0000 0.0000 20.6805 -4.1945 -3.8820 0.2845 7.1250 -0.0000 -0.0000 18.1549 -33.4315 5.3819
10.3348 17.1820 4.2523 -14.2882 -61.5428 15.0213 0.0000 0.0000 0.0000 -13.5539 -0.0728 -15.5389 3.7278 11.7892 34.9901 1.7962 -4.3548 -24.3275 0.0622 -1.6086 -4.4251 0.0000 0.0000 0.0000 29.8864 -2.4317 -15.9516 -3.6778 -11.7188 34.7444 -1.9631 -2.9273 -27.6521 -0.0002 -0.0791 0.2175 7.5071 -0.4775 -6.4723 0.3584 -1.3838 3.1511 -4.0085 -0.3567 6.8064 -5.4581 -3.8130 -9.6646 11.2719 -5.7113 8.9912 3.9837 -2.3763 4.7700 -0.0000 -0.0000 0.0000 -60.6328 4.1813 59.9366 14.1172 -22.9020 -2.8736 -0.0000 0.0000 -8.4410 5.7634 -3.1379 -0.3166 -7.1250 0.0000 -0.0000 -15.7635 26.7307 7.2478 -0.0000 -0.0000 0.0000 68.3981 -11.2569 50.3753 -9.4254 15.8358 -1.3138 0.0000 0.0000 20.6493 -4.1977 -3.8633 0.2833 7.1250 -0.0000 -0.0000 18.1485 -33.4139 5.3880
10.3348 17.1824 4.2495 -14.3194 -61.5264 15.0600 0.0000 0.0000 0.0000 -13.5193 -0.1344 -15.5582 3.7295 11.7915 34.9983 1.7943 -4.3578 -24.3138 0.0580 -1.5538 -4.2742 0.0000 0.0000 0.0000 29.9157 -2.4179 -15.9604 -3.6760 -11.7164 34.7358 -1.9676 -2.8959 -27.6685 -0.0005 -0.1439 0.3954 7.5208 -0.4803 -6.4752 0.3664 -1.3895 3.1474 -4.0085 -0.3593 6.8035 -5.4840 -3.8201 -9.6640 11.3130 -5.7226 8.9898 4.0000 -2.3806 4.7725 0.0000 0.0000 0.0000 -60.5724 4.1989 60.1315 14.1580 -22.9602 -2.8895 -0.0000 0.0000 -8.6588 5.7441 -3.1370 -0.3154 -7.1250 0.0000 -0.0000 -15.7780 26.7314 7.2547 0.0000 0.0000 0.0000 68.3946 -11.2879 50.4065 -9.4318 15.8459 -1.3155 0.0000 0.0000 20.6568 -4.1301 -3.8571 0.2783 7.1250 -0.0000 -0.0000 18.2001 -33.4049 5.4089
10.3349 17.1824 4.2465 -14.3236 -61.5148 15.0688 0.0000 0.0000 0.0000 -13.5015 -0.1431 -15.5772 3.7307 11.7932 35.0043 1.7928 -4.3678 -24.3015 0.0576 -1.5481 -4.2582 0.0000 0.0000 0.0000 29.9313 -2.4261 -15.9735 -3.6751 -11.7150 34.7312 -1.9670 -2.8936 -27.6639 -0.0005 -0.1452 0.3989 7.5276 -0.4813 -6.4721 0.3647 -1.3908 3.1442 -4.0141 -0.3599 6.7979 -5.4880 -3.8227 -9.6488 11.3361 -5.7283 8.9810 4.0077 -2.3830 4.7686 -0.0000 0.0000 0.0000 -60.5574 4.2190 60.2185 14.1722 -22.9803 -2.8950 -0.0000 0.0000 -8.7341 5.7562 -3.1147 -0.3138 -7.1250 0.0000 -0.0000 -15.7719 26.7531 7.2433 -0.0000 0.0000 0.0000 68.4083 -11.3136 50.4089 -9.4313 15.8451 -1.3154 0.0000 0.0000 20.6637 -4.1000 -3.8392 0.2750 7.1250 -0.0000 -0.0000 18.2200 -33.3864 5.4239
